<svg xmlns="http://www.w3.org/2000/svg" viewBox="0 0 526.81 60"><defs><style>.cls-1{fill:#3c3c3c;}.cls-2{fill:#d55e4a;}.cls-3{fill:#68a5b8;}</style></defs><title>logo_b</title><g id="Layer_2" data-name="Layer 2"><g id="Layer_1-2" data-name="Layer 1"><path class="cls-1" d="M161.22,30A35.32,35.32,0,0,1,159,43a26.75,26.75,0,0,1-6,9.38,24.83,24.83,0,0,1-9.09,5.68A33.07,33.07,0,0,1,132.59,60a32.24,32.24,0,0,1-11.12-1.91,25.68,25.68,0,0,1-9.13-5.68A26.74,26.74,0,0,1,106.2,43,34.89,34.89,0,0,1,104,30a33.72,33.72,0,0,1,2.33-13,27.59,27.59,0,0,1,6.26-9.42,25.79,25.79,0,0,1,9.13-5.72A31.39,31.39,0,0,1,132.59,0a32.2,32.2,0,0,1,11.12,1.91,25.27,25.27,0,0,1,9.13,5.72A27,27,0,0,1,159,17.05,34.73,34.73,0,0,1,161.22,30Zm-43.9,0a26.24,26.24,0,0,0,1,7.64,17.38,17.38,0,0,0,3,5.85,13.17,13.17,0,0,0,4.77,3.77,16.3,16.3,0,0,0,12.9,0,13.09,13.09,0,0,0,4.82-3.77,17.36,17.36,0,0,0,3-5.85,25.91,25.91,0,0,0,1-7.64,26.21,26.21,0,0,0-1-7.67,17.43,17.43,0,0,0-3-5.9A13.09,13.09,0,0,0,139,12.7a15,15,0,0,0-6.43-1.33,14.68,14.68,0,0,0-6.47,1.37,13.53,13.53,0,0,0-4.77,3.82,17.3,17.3,0,0,0-3,5.89A26.28,26.28,0,0,0,117.32,30Z"/><path class="cls-1" d="M222.38,30a33.62,33.62,0,0,1-2.32,13,24.07,24.07,0,0,1-6.6,9.21,28.12,28.12,0,0,1-10.41,5.48,48.25,48.25,0,0,1-13.78,1.82c-2.32,0-5-.09-8.13-.29h-.07A9.67,9.67,0,0,1,172,49.64V10.75A9.77,9.77,0,0,1,181.11,1l.24,0q4.85-.28,8.34-.29a50.63,50.63,0,0,1,13.4,1.66,27.48,27.48,0,0,1,10.33,5.23,23.21,23.21,0,0,1,6.64,9.13A34.58,34.58,0,0,1,222.38,30ZM185,46.23a2.19,2.19,0,0,0,2.11,2.19h0c.8,0,1.76,0,2.87,0q9.7,0,14.39-4.89T209,30q0-9-4.48-13.69T190.35,11.7c-.88,0-1.8,0-2.74,0l-.55,0A2.21,2.21,0,0,0,185,14Z"/><path class="cls-1" d="M269.29,1.33H239.05a5.67,5.67,0,0,0-5.88,5.43h0a5.67,5.67,0,0,0,5.88,5.44h30.24a5.67,5.67,0,0,0,5.88-5.44h0A5.67,5.67,0,0,0,269.29,1.33Z"/><path class="cls-1" d="M257.29,24.65H239.05a5.67,5.67,0,0,0-5.88,5.43h0a5.67,5.67,0,0,0,5.88,5.44h18.24a5.67,5.67,0,0,0,5.88-5.44h0A5.67,5.67,0,0,0,257.29,24.65Z"/><path class="cls-1" d="M233.17,53.4h0a5.53,5.53,0,0,0,5.61,5.44h30.79a5.53,5.53,0,0,0,5.6-5.44h0a5.52,5.52,0,0,0-5.6-5.43H238.78A5.52,5.52,0,0,0,233.17,53.4Z"/><path class="cls-1" d="M333.89,53.28a5.56,5.56,0,0,1-5.57,5.56H308.37a12.91,12.91,0,0,1-12.91-12.91V7.8a6.48,6.48,0,0,1,13,0V42.16A5.56,5.56,0,0,0,314,47.72h14.35A5.56,5.56,0,0,1,333.89,53.28Z"/><path class="cls-1" d="M348.66,1.33h0a6.47,6.47,0,0,1,6.47,6.47V52.37a6.47,6.47,0,0,1-6.47,6.47h0a6.48,6.48,0,0,1-6.48-6.47V7.8A6.48,6.48,0,0,1,348.66,1.33Z"/><path class="cls-1" d="M411,58.84a6.84,6.84,0,0,1-5.93-3.39q-4.74-8.14-10.1-16.11a199.16,199.16,0,0,0-12.11-16.21.94.94,0,0,0-1.66.61V52.45a6.39,6.39,0,0,1-6.39,6.39h0a6.39,6.39,0,0,1-6.39-6.39V8.71a7.37,7.37,0,0,1,7.38-7.38h0a7.38,7.38,0,0,1,5.42,2.36C382.4,5,383.67,6.45,385,8.05q3.33,4,6.77,8.51c2.29,3,4.58,6.14,6.84,9.37q2.46,3.5,4.68,6.79a.93.93,0,0,0,1.71-.53V7.72a6.4,6.4,0,0,1,6.39-6.39h.09a6.39,6.39,0,0,1,6.39,6.39V52A6.88,6.88,0,0,1,411,58.84Z"/><path class="cls-1" d="M431.14,53.4h0a5.53,5.53,0,0,0,5.61,5.44h30.79a5.52,5.52,0,0,0,5.6-5.44h0a5.51,5.51,0,0,0-5.6-5.43H436.75A5.52,5.52,0,0,0,431.14,53.4Z"/><path class="cls-1" d="M467.27,1.33H437a5.67,5.67,0,0,0-5.88,5.43h0A5.67,5.67,0,0,0,437,12.2h30.25a5.66,5.66,0,0,0,5.87-5.44h0A5.66,5.66,0,0,0,467.27,1.33Z"/><path class="cls-1" d="M455.27,24.65H437a5.67,5.67,0,0,0-5.88,5.43h0A5.68,5.68,0,0,0,437,35.52h18.25a5.67,5.67,0,0,0,5.87-5.44h0A5.66,5.66,0,0,0,455.27,24.65Z"/><path class="cls-1" d="M97.87,8.69l-.42,1.15A5.64,5.64,0,0,0,97.87,8.69Z"/><path class="cls-1" d="M95.5,57.78l-1,.31A6.22,6.22,0,0,0,95.5,57.78Z"/><path class="cls-1" d="M98.78,51.49a5.34,5.34,0,0,0-.45-1.31,5.67,5.67,0,0,0-2.48-2.55,5.82,5.82,0,0,0-4.43-.31c-.25.08-.49.17-.75.24l-.84.19c-.74.16-1.49.29-2.24.41l-.39.06a35,35,0,0,1-5.06.33A18.3,18.3,0,0,1,74.5,47.1a13.58,13.58,0,0,1-5.1-4,15.7,15.7,0,0,1-2.82-5.93,29.79,29.79,0,0,1-.88-7.43A23.92,23.92,0,0,1,67,21.33a15.94,15.94,0,0,1,3.53-5.69,13.18,13.18,0,0,1,5.06-3.19,17.55,17.55,0,0,1,5.85-1,33.92,33.92,0,0,1,4.62.3,24.19,24.19,0,0,1,4.19.95,7.41,7.41,0,0,0,1.33.34,5.64,5.64,0,0,0,3.91-.95,5.75,5.75,0,0,0,1.93-2.25l.42-1.15A5.92,5.92,0,0,0,98,7.35a5.87,5.87,0,0,0-1.46-3.82,4.81,4.81,0,0,0-1.36-1.09,10.4,10.4,0,0,0-2.13-.77c-.76-.22-1.52-.43-2.29-.61Q90,.87,89.11.7L88.28.54A37.58,37.58,0,0,0,81.64,0a33.42,33.42,0,0,0-11.7,2,25.73,25.73,0,0,0-9.3,5.85A27.41,27.41,0,0,0,54.5,17.3,34.17,34.17,0,0,0,52.26,30q0,14.35,7.34,22.16T81,60a44.81,44.81,0,0,0,11.54-1.33,12.11,12.11,0,0,0,4.07-1.51,5.75,5.75,0,0,0,2.08-2.91,5.64,5.64,0,0,0,.24-1.63A5.22,5.22,0,0,0,98.78,51.49Z"/><rect class="cls-2" x="12.41" y="17.58" width="13" height="45" rx="6.5" transform="translate(-24.11 29.43) rotate(-50.83)"/><rect class="cls-2" x="18.77" y="5.94" width="19.81" height="13" rx="6.5" transform="translate(-1.42 20.9) rotate(-39.17)"/><rect class="cls-3" x="485.41" y="33.58" width="45" height="13" rx="6.5" transform="translate(88.8 329.78) rotate(-39.17)"/><rect class="cls-3" x="491.64" y="2.54" width="13" height="19.81" rx="6.5" transform="translate(173.89 390.81) rotate(-50.83)"/></g></g></svg>